<svg width="16" height="16" viewBox="0 0 16 16" fill="none" xmlns="http://www.w3.org/2000/svg">
<path d="M15.5212 3.30822C15.249 3.0832 14.899 2.97487 14.5472 3.00682C14.1955 3.03877 13.8707 3.20841 13.6435 3.47879L8.00007 10.2499L2.35658 3.47891C2.13003 3.20746 1.80493 3.03713 1.4528 3.00539C1.10067 2.97364 0.750348 3.08308 0.478906 3.30963C0.207463 3.53618 0.0371335 3.86128 0.00538817 4.21341C-0.0263572 4.56554 0.083082 4.91586 0.30963 5.18731L6.97659 13.1876C7.10166 13.3375 7.25816 13.4582 7.43502 13.541C7.61188 13.6238 7.80478 13.6667 8.00007 13.6667C8.19535 13.6667 8.38825 13.6238 8.56511 13.541C8.74197 13.4582 8.89848 13.3375 9.02354 13.1876L15.6905 5.1872C15.917 4.91548 16.0264 4.56498 15.9946 4.21269C15.9629 3.86039 15.7926 3.53509 15.5212 3.30822Z" fill="black"/>
</svg>
