<svg width="16" height="16" viewBox="0 0 16 16" fill="none" xmlns="http://www.w3.org/2000/svg">
<path d="M13.5714 3.1875H11.3648L10.4541 1.63574C10.1991 1.24136 9.80536 1 9.35536 1H6.64464C6.19464 1 5.77679 1.24136 5.54643 1.63574L4.63518 3.1875H2.42857C2.19085 3.1875 2 3.38246 2 3.625V4.0625C2 4.30586 2.19085 4.5 2.42857 4.5H2.85714V13.25C2.85714 14.2166 3.62455 15 4.57143 15H11.4286C12.3754 15 13.1429 14.2166 13.1429 13.25V4.5H13.5714C13.8098 4.5 14 4.30586 14 4.0625V3.625C14 3.38246 13.8098 3.1875 13.5714 3.1875ZM6.60446 2.39125C6.63125 2.3434 6.68482 2.3125 6.74107 2.3125H9.25893C9.31585 2.3125 9.36942 2.34326 9.39621 2.39111L9.86429 3.1875H6.13571L6.60446 2.39125ZM11.4286 13.6875H4.57143C4.33472 13.6875 4.14286 13.4916 4.14286 13.25V4.5H11.8571V13.25C11.8571 13.4906 11.6643 13.6875 11.4286 13.6875ZM8 12.375C8.23689 12.375 8.42857 12.1793 8.42857 11.9375V6.25C8.42857 6.00817 8.23689 5.8125 8 5.8125C7.76311 5.8125 7.57143 6.00937 7.57143 6.25V11.9375C7.57143 12.1781 7.76429 12.375 8 12.375ZM5.85714 12.375C6.09286 12.375 6.28571 12.1781 6.28571 11.9375V6.25C6.28571 6.00817 6.09404 5.8125 5.85714 5.8125C5.62025 5.8125 5.42857 6.00937 5.42857 6.25V11.9375C5.42857 12.1781 5.62143 12.375 5.85714 12.375ZM10.1429 12.375C10.3798 12.375 10.5714 12.1793 10.5714 11.9375V6.25C10.5714 6.00817 10.3798 5.8125 10.1429 5.8125C9.90596 5.8125 9.71429 6.00937 9.71429 6.25V11.9375C9.71429 12.1781 9.90714 12.375 10.1429 12.375Z" fill="black"/>
</svg>
