<svg width="16" height="16" viewBox="0 0 16 16" fill="none" xmlns="http://www.w3.org/2000/svg">
<g clip-path="url(#clip0_248_954)">
<path d="M3.01332 3.95598L0.928656 1.87198L1.87199 0.92865L15.0713 14.1286L14.128 15.0713L11.9213 12.8647C10.7488 13.6084 9.38848 14.0022 7.99999 14C4.40532 14 1.41466 11.4133 0.787323 7.99998C1.07401 6.44713 1.85441 5.02858 3.01332 3.95598ZM9.83799 10.7813L8.86199 9.80532C8.48869 9.98393 8.06917 10.0423 7.66128 9.97251C7.25338 9.90267 6.87719 9.70803 6.58457 9.4154C6.29195 9.12278 6.0973 8.74659 6.02747 8.3387C5.95763 7.9308 6.01605 7.51128 6.19466 7.13798L5.21866 6.16198C4.79447 6.80298 4.60484 7.57087 4.68188 8.33564C4.75892 9.10041 5.09789 9.81506 5.6414 10.3586C6.18491 10.9021 6.89956 11.2411 7.66433 11.3181C8.4291 11.3951 9.197 11.2055 9.83799 10.7813ZM5.31599 2.50665C6.14732 2.17998 7.05332 1.99998 7.99999 1.99998C11.5947 1.99998 14.5853 4.58665 15.2127 7.99998C15.0084 9.11045 14.5492 10.1584 13.8713 11.0613L11.298 8.48798C11.3744 7.97306 11.3292 7.44739 11.1659 6.95309C11.0027 6.45878 10.7259 6.00959 10.3578 5.64149C9.98972 5.2734 9.54052 4.99663 9.04622 4.83337C8.55192 4.6701 8.02625 4.62488 7.51132 4.70132L5.31599 2.50665Z" fill="black"/>
</g>
<defs>
</defs>
</svg>
