<svg width="16" height="16" viewBox="0 0 16 16" fill="none" xmlns="http://www.w3.org/2000/svg">
<path fill-rule="evenodd" clip-rule="evenodd" d="M1.51959 6.943C1.54232 6.88522 1.56687 6.82155 1.58979 6.75978C1.6163 6.68827 1.63938 6.62368 1.65468 6.57358C1.66965 6.52456 1.67582 6.49308 1.67582 6.49308C1.68556 6.42121 1.626 6.356 1.54296 6.34757C1.45988 6.33915 1.38453 6.39069 1.37483 6.46259C1.37483 6.46259 1.37244 6.49446 1.37392 6.54512C1.37544 6.59692 1.38063 6.6644 1.38733 6.73925C1.39343 6.80735 1.40078 6.87788 1.40779 6.94116C1.24261 6.94736 1.1082 6.99405 1.01076 7.06706C0.981707 7.08887 0.955491 7.11316 0.932457 7.13979C0.873813 7.07975 0.798537 7.00359 0.725496 6.93214C0.667988 6.87594 0.615556 6.82581 0.573581 6.78883C0.532514 6.7527 0.504404 6.73201 0.504404 6.73201C0.437955 6.6881 0.342752 6.69912 0.291988 6.75666C0.241261 6.81417 0.25399 6.89657 0.320477 6.9405C0.320477 6.9405 0.350936 6.9585 0.402003 6.98329C0.454284 7.0086 0.523953 7.03916 0.601767 7.07237C0.702728 7.11546 0.809864 7.1592 0.892982 7.19264C0.831155 7.28923 0.805508 7.40986 0.827253 7.54888C0.741521 7.56281 0.636999 7.58032 0.537477 7.59839C0.452579 7.6138 0.37628 7.62842 0.318393 7.6417C0.261794 7.65468 0.22713 7.6656 0.22713 7.6656C0.150112 7.69387 0.114084 7.77088 0.14674 7.83754C0.179358 7.90417 0.268386 7.93535 0.345405 7.90712C0.345405 7.90712 0.378553 7.89312 0.428712 7.86695C0.480007 7.8402 0.545168 7.80292 0.617034 7.76082C0.695151 7.71508 0.775844 7.66629 0.843922 7.62465C0.879912 7.74679 0.954392 7.83023 1.04645 7.88239C1.07899 7.90082 1.1146 7.91518 1.1526 7.92554C1.12559 7.98112 1.09642 8.04217 1.06895 8.10148C1.03671 8.17119 1.00849 8.23424 0.98917 8.28329C0.970266 8.33126 0.961515 8.36227 0.961515 8.36227C0.945982 8.43339 1.00012 8.50205 1.08229 8.51549C1.16446 8.52894 1.24379 8.48211 1.25932 8.41097C1.25932 8.41097 1.26428 8.37932 1.2669 8.3287C1.26963 8.27693 1.26989 8.20932 1.26929 8.13424C1.26876 8.0704 1.26732 8.0044 1.26561 7.94417C1.37801 7.95181 1.50208 7.93053 1.62248 7.88108C1.65858 7.92987 1.6981 7.98263 1.737 8.03332C1.785 8.09588 1.82895 8.15178 1.86464 8.19339C1.89953 8.23411 1.92408 8.25795 1.92408 8.25795C1.98291 8.30939 2.07895 8.30978 2.13839 8.25886C2.19783 8.20794 2.19832 8.12483 2.13948 8.07338C2.13948 8.07338 2.11217 8.05191 2.06553 8.02128C2.0178 7.98997 1.95366 7.95138 1.88187 7.90921C1.83365 7.88085 1.78379 7.85216 1.73628 7.82508C1.78246 7.79839 1.82732 7.76728 1.86986 7.73183C2.22745 7.55472 2.55678 7.31999 2.8594 7.03165C2.95244 6.94303 3.01821 6.82345 3.06553 6.69289C3.62041 7.65157 4.24099 8.45369 4.94935 9.04082C4.76346 9.02196 4.57756 9.01708 4.39166 9.02741C4.20364 9.0379 4.0063 9.11292 3.80411 9.19741C3.64322 9.26462 3.47839 9.33787 3.30954 9.37076C3.28131 9.36456 3.2532 9.35932 3.2254 9.35499C3.25157 9.28892 3.28135 9.21226 3.30882 9.13829C3.3353 9.06682 3.35837 9.00219 3.37367 8.95209C3.38864 8.90311 3.39485 8.87163 3.39485 8.87163C3.40455 8.79973 3.34503 8.73451 3.26195 8.72612C3.17887 8.71769 3.10356 8.7692 3.09382 8.84111C3.09382 8.84111 3.09144 8.87298 3.09292 8.92363C3.09443 8.97544 3.09962 9.04292 3.10633 9.11777C3.11322 9.19462 3.12167 9.27453 3.12947 9.34368C2.91346 9.32646 2.72059 9.36837 2.60292 9.46879C2.55401 9.41919 2.49863 9.36361 2.44449 9.31069C2.38698 9.25446 2.33455 9.20433 2.29257 9.16738C2.25151 9.13121 2.2234 9.11056 2.2234 9.11056C2.15695 9.06662 2.06178 9.07767 2.01102 9.13518C1.96025 9.19272 1.97302 9.27508 2.03947 9.31902C2.03947 9.31902 2.06993 9.33705 2.12103 9.36181C2.17328 9.38712 2.24295 9.41768 2.32076 9.45089C2.39354 9.48194 2.46949 9.51335 2.53738 9.54099C2.49143 9.6067 2.46506 9.68936 2.46862 9.79188C2.47048 9.84513 2.47832 9.89316 2.49131 9.93641C2.41782 9.94854 2.33557 9.96254 2.25647 9.9769C2.17157 9.99235 2.09527 10.0069 2.03739 10.0202C1.98079 10.0332 1.94612 10.0441 1.94612 10.0441C1.86911 10.0724 1.83312 10.1494 1.86573 10.2161C1.89839 10.2827 1.98738 10.3139 2.0644 10.2856C2.0644 10.2856 2.09758 10.2716 2.14771 10.2455C2.199 10.2187 2.26416 10.1814 2.33603 10.1393C2.40119 10.1012 2.46813 10.0609 2.52802 10.0244C2.56519 10.0919 2.61777 10.1441 2.68055 10.184C2.73991 10.2217 2.81125 10.2479 2.89133 10.2636C2.85928 10.3291 2.82227 10.4059 2.78799 10.48C2.75575 10.5497 2.72748 10.6128 2.70816 10.6618C2.68926 10.7098 2.68055 10.7408 2.68055 10.7408C2.66501 10.8119 2.71911 10.8806 2.80128 10.894C2.88349 10.9074 2.96282 10.8606 2.97835 10.7895C2.97835 10.7895 2.98328 10.7579 2.98593 10.7072C2.98862 10.6554 2.98892 10.5878 2.98828 10.5128C2.9876 10.4322 2.98548 10.3482 2.9832 10.2766C3.09269 10.2869 3.21437 10.2806 3.34155 10.2597C3.37765 10.3085 3.41713 10.3612 3.456 10.4119C3.504 10.4744 3.54794 10.5303 3.58363 10.5719C3.61856 10.6126 3.64311 10.6365 3.64311 10.6365C3.70194 10.6879 3.79794 10.6883 3.85738 10.6374C3.91682 10.5865 3.91731 10.5034 3.85848 10.4519C3.85848 10.4519 3.8312 10.4304 3.78453 10.3998C3.73679 10.3685 3.67266 10.3299 3.60087 10.2877C3.56874 10.2688 3.53586 10.2498 3.50347 10.2312C3.79324 10.1755 4.08366 10.0914 4.37404 9.97822C4.79168 10.2642 5.22326 10.4516 5.66892 10.5318C5.64718 10.9137 5.46564 11.4949 5.36903 12.1321C5.25769 12.8665 5.25743 13.6708 5.6904 14.3471C6.20696 15.1537 6.98616 15.7425 8.31013 15.9717C8.70091 16.0396 9.18613 15.9851 9.70298 15.8107C10.4517 15.5582 11.2714 15.054 11.9589 14.3271C12.5811 13.6689 13.1709 13.0888 13.7885 12.7282C14.3753 12.3856 14.9864 12.2463 15.6775 12.4499C15.8385 12.4974 15.9458 12.4238 15.9841 12.3379C16.0205 12.2566 16.0001 12.1417 15.8628 12.0756C14.9632 11.6425 14.1567 11.7835 13.3866 12.1842C12.8964 12.4392 12.4209 12.8017 11.9453 13.1814C11.3674 13.6428 10.7889 14.13 10.1779 14.4677C9.5949 14.7897 8.9828 14.975 8.30968 14.8471C7.43149 14.6802 7.0176 14.0985 6.94414 13.3606C6.8694 12.6093 7.13955 11.7007 7.64239 10.8721C8.001 10.9192 8.36976 10.9282 8.74804 10.9015C8.88146 11.1609 9.04895 11.4056 9.25754 11.6325C9.26909 11.6517 9.28091 11.6703 9.29296 11.6882C9.22556 11.7086 9.15135 11.7315 9.07998 11.7544C8.9986 11.7804 8.92564 11.8046 8.87063 11.8251C8.81683 11.8451 8.7844 11.8603 8.7844 11.8603C8.71303 11.8981 8.69049 11.9789 8.73409 12.0406C8.7777 12.1024 8.87105 12.1219 8.94242 12.0842C8.94242 12.0842 8.97288 12.0661 9.018 12.0338C9.06418 12.0009 9.12233 11.9557 9.18624 11.9049C9.24299 11.8598 9.30114 11.8125 9.35339 11.7695C9.46405 11.9048 9.59077 11.9887 9.72079 12.0235C9.75132 12.0317 9.78235 12.0375 9.81383 12.0408C9.79951 12.1022 9.78405 12.1705 9.77007 12.2366C9.75443 12.3104 9.74121 12.3771 9.73352 12.4285C9.72602 12.4787 9.72454 12.5106 9.72454 12.5106C9.72564 12.583 9.7944 12.641 9.87804 12.6401C9.96165 12.6392 10.0287 12.5796 10.0276 12.5073C10.0276 12.5073 10.0252 12.4754 10.0162 12.4253C10.0069 12.3741 9.99173 12.3078 9.97389 12.2343C9.95813 12.1693 9.94086 12.1021 9.92483 12.0415C10.053 12.0301 10.1858 11.9762 10.3172 11.8714C10.3276 11.8631 10.3375 11.8548 10.347 11.8464C10.3935 11.8812 10.4432 11.9181 10.4918 11.9535C10.5583 12.0018 10.6186 12.0447 10.6664 12.0759C10.7131 12.1065 10.7445 12.1233 10.7445 12.1233C10.8176 12.1584 10.9099 12.1353 10.9504 12.072C10.9908 12.0086 10.9642 11.9288 10.891 11.8938C10.891 11.8938 10.8578 11.8798 10.8031 11.8618C10.7471 11.8434 10.673 11.822 10.5904 11.799C10.5378 11.7845 10.4838 11.7699 10.4319 11.7562C10.4998 11.6669 10.5255 11.5742 10.5173 11.4843C10.5124 11.4296 10.4936 11.3744 10.4611 11.3204C10.5134 11.3079 10.5681 11.2945 10.6212 11.2811C10.7045 11.26 10.7792 11.2403 10.8358 11.2232C10.891 11.2065 10.9246 11.1933 10.9246 11.1933C10.9989 11.1599 11.0279 11.0807 10.9894 11.0165C10.9509 10.9522 10.8594 10.9271 10.7851 10.9604C10.7851 10.9604 10.7533 10.9766 10.7057 11.006C10.6569 11.0361 10.5953 11.0777 10.5274 11.1244C10.48 11.1571 10.4316 11.1911 10.3861 11.2234C10.315 11.1491 10.2154 11.0797 10.0871 11.0207C10.1069 10.9715 10.1275 10.9192 10.147 10.8682C10.1743 10.7969 10.198 10.7325 10.2138 10.6825C10.2292 10.6336 10.2357 10.6022 10.2357 10.6022C10.2462 10.5304 10.1873 10.4647 10.1044 10.4556C10.0214 10.4466 9.94552 10.4975 9.93506 10.5693C9.93506 10.5693 9.93237 10.6012 9.93332 10.6519C9.9343 10.7037 9.93881 10.7712 9.94476 10.8461C9.9451 10.8504 9.94544 10.8547 9.94578 10.859C9.8541 10.7233 9.77473 10.5673 9.69283 10.4333C9.59494 10.273 9.48909 10.1418 9.37244 10.0783C8.94102 9.84346 8.45769 9.68234 7.91788 9.60162C8.19781 8.66376 8.15818 7.81341 7.61189 6.93899C7.41667 6.62656 7.07359 6.33003 6.67698 6.05488C6.10634 5.65903 5.42491 5.30558 4.95185 5.0019C4.76266 4.88046 4.60805 4.76861 4.5138 4.66468C4.48554 4.63356 4.4625 4.60458 4.44902 4.57651C4.58733 4.45274 4.72292 4.36664 4.85066 4.27726C5.01232 4.16418 5.16249 4.04624 5.29603 3.86076C5.38203 3.74128 5.40658 3.62659 5.40631 3.49367C5.40597 3.34622 5.37002 3.17133 5.38919 2.92142C5.42404 2.89408 5.45363 2.86273 5.47795 2.82854C5.5436 2.86673 5.6193 2.91021 5.69268 2.95116C5.7656 2.99182 5.83171 3.02782 5.88369 3.05359C5.93449 3.07877 5.96802 3.09208 5.96802 3.09208C6.04576 3.11884 6.13391 3.08595 6.16483 3.01867C6.19574 2.95143 6.15771 2.8751 6.08001 2.84834C6.08001 2.84834 6.04504 2.83811 5.9881 2.82624C5.92991 2.81408 5.85327 2.80096 5.76795 2.78719C5.68506 2.77381 5.59869 2.7609 5.5225 2.74991C5.58713 2.60214 5.56774 2.42541 5.45658 2.296C5.53572 2.26364 5.6324 2.22354 5.72397 2.184C5.8016 2.15045 5.87115 2.1196 5.92324 2.09409C5.9742 2.06911 6.00458 2.05098 6.00458 2.05098C6.0708 2.00678 6.08311 1.92435 6.03204 1.86704C5.98098 1.80969 5.88574 1.79904 5.81951 1.84323C5.81951 1.84323 5.79152 1.86405 5.75064 1.90035C5.70885 1.93747 5.65669 1.98783 5.59952 2.04429C5.53061 2.11226 5.45973 2.18455 5.40286 2.24321C5.3124 2.1678 5.18261 2.11547 5.00887 2.11468C5.01561 2.03852 5.02338 1.94432 5.02906 1.85438C5.03383 1.7794 5.03728 1.71185 5.03743 1.66002C5.03759 1.60933 5.0344 1.57752 5.0344 1.57752C5.02281 1.50585 4.94613 1.45578 4.86332 1.46585C4.78047 1.47588 4.72265 1.54221 4.73425 1.61392C4.73425 1.61392 4.74125 1.64526 4.75751 1.69395C4.7741 1.74376 4.79884 1.80789 4.82721 1.87884C4.86055 1.96229 4.89707 2.04917 4.92746 2.12009C4.77554 2.14173 4.65458 2.22626 4.57941 2.33436C4.50823 2.28603 4.4175 2.22518 4.33006 2.16849C4.26058 2.1235 4.19754 2.08357 4.1478 2.05471C4.09916 2.02652 4.06677 2.01117 4.06677 2.01117C3.99141 1.97979 3.90079 2.00724 3.8645 2.07249C3.82825 2.1377 3.85999 2.21613 3.93535 2.24754C3.93535 2.24754 3.96937 2.25987 4.02521 2.27515C4.0823 2.29082 4.15769 2.30856 4.24164 2.32748C4.34646 2.35108 4.45701 2.37426 4.54467 2.3922C4.52016 2.44007 4.50402 2.49082 4.49736 2.54168C4.49164 2.58535 4.49273 2.6285 4.50073 2.66968C4.42015 2.69155 4.32442 2.71804 4.23319 2.7446C4.15098 2.76854 4.07718 2.7908 4.02149 2.80985C3.96705 2.8285 3.9341 2.84287 3.9341 2.84287C3.86147 2.87874 3.83613 2.9589 3.87757 3.02175C3.91902 3.08464 4.01168 3.10654 4.08431 3.07067C4.08431 3.07067 4.11533 3.05343 4.16159 3.02235C4.20891 2.99057 4.26857 2.9469 4.33423 2.89782C4.40015 2.84854 4.46788 2.79647 4.52668 2.75076C4.54721 2.79545 4.57737 2.83605 4.61722 2.87001C4.61245 2.96589 4.61048 3.06664 4.59271 3.161C4.57578 3.25091 4.54592 3.3355 4.46591 3.39376C4.15212 3.6222 3.98619 3.78541 3.87318 3.89171C3.83454 3.92807 3.80347 3.95692 3.77407 3.97814C3.75452 3.99224 3.73831 4.00161 3.71501 4.00171C3.68421 4.00181 3.65887 3.98686 3.63534 3.96492C3.59996 3.93194 3.57063 3.88568 3.54495 3.82892C3.86549 2.91182 3.23392 1.69477 2.37365 0.884491C1.7783 0.323724 1.07475 -0.0349093 0.520808 0.00269813C0.480083 0.00545229 0.44235 0.0223392 0.41621 0.0495202C0.25937 0.212508 0.13958 0.478513 0.0708958 0.806652C-0.0263907 1.27132 -0.0260877 1.86455 0.0875648 2.44571C0.202164 3.03175 0.432538 3.60492 0.78846 4.02489C1.02686 4.30618 1.32157 4.51979 1.67355 4.63015C1.82243 4.8039 1.89794 5.03698 1.97052 5.26361C2.05057 5.51375 2.12763 5.7571 2.25878 5.93186C2.15206 6.39426 1.93268 6.73591 1.58907 6.94975C1.56546 6.94677 1.54228 6.94454 1.51959 6.943Z" fill="black"/>
</svg>
