<svg width="16" height="16" viewBox="0 0 16 16" fill="none" xmlns="http://www.w3.org/2000/svg">
<path d="M15 8.63063C14.8774 9.95738 14.3795 11.2218 13.5645 12.2759C12.7495 13.33 11.6512 14.1301 10.398 14.5828C9.14485 15.0354 7.78869 15.1218 6.48823 14.8319C5.18776 14.5419 3.99677 13.8875 3.05462 12.9454C2.11246 12.0032 1.45812 10.8122 1.16815 9.51178C0.878172 8.21131 0.964564 6.85515 1.41721 5.60199C1.86986 4.34883 2.67005 3.2505 3.72414 2.43552C4.77823 1.62054 6.04262 1.12261 7.36937 1C6.5926 2.05088 6.21881 3.34566 6.316 4.64884C6.41318 5.95202 6.97487 7.17704 7.89892 8.10109C8.82297 9.02513 10.048 9.58683 11.3512 9.68401C12.6543 9.78119 13.9491 9.4074 15 8.63063Z" stroke="black" stroke-width="2" stroke-linecap="round" stroke-linejoin="round"/>
</svg>
