<svg width="16" height="16" viewBox="0 0 16 16" fill="none" xmlns="http://www.w3.org/2000/svg">
<path d="M12.2031 7.16667H8.83333V3.79688C8.83333 3.35677 8.46094 3 8 3C7.53906 3 7.16667 3.35677 7.16667 3.79688V7.16667H3.79688C3.35677 7.16667 3 7.53906 3 8C3 8.46094 3.35677 8.83333 3.79688 8.83333H7.16667V12.2031C7.16667 12.6432 7.53906 13 8 13C8.46094 13 8.83333 12.6432 8.83333 12.2031V8.83333H12.2031C12.6432 8.83333 13 8.46094 13 8C13 7.53906 12.6432 7.16667 12.2031 7.16667Z" fill="black"/>
</svg>
