<svg width="16" height="16" viewBox="0 0 16 16" fill="none" xmlns="http://www.w3.org/2000/svg">
<path d="M11.9041 1.79281C11.8112 1.69996 11.7009 1.62631 11.5796 1.57607C11.4583 1.52583 11.3282 1.49998 11.1969 1.5H2.94438C2.75469 1.49996 2.56685 1.53729 2.39159 1.60986C2.21633 1.68244 2.05709 1.78883 1.92296 1.92296C1.78883 2.05709 1.68244 2.21633 1.60986 2.39159C1.53729 2.56685 1.49996 2.75469 1.5 2.94438V13.0556C1.49996 13.2453 1.53729 13.4332 1.60986 13.6084C1.68244 13.7837 1.78883 13.9429 1.92296 14.077C2.05709 14.2112 2.21633 14.3176 2.39159 14.3901C2.56685 14.4627 2.75469 14.5 2.94438 14.5H13.0556C13.4383 14.4988 13.8051 14.3463 14.0757 14.0757C14.3463 13.8051 14.4988 13.4383 14.5 13.0556V4.80312C14.5 4.6718 14.4742 4.54175 14.4239 4.42041C14.3737 4.29907 14.3 4.18881 14.2072 4.09594L11.9041 1.79281ZM8 13C7.60444 13 7.21776 12.8827 6.88886 12.6629C6.55996 12.4432 6.30362 12.1308 6.15224 11.7654C6.00087 11.3999 5.96126 10.9978 6.03843 10.6098C6.1156 10.2219 6.30608 9.86549 6.58579 9.58579C6.86549 9.30608 7.22186 9.1156 7.60982 9.03843C7.99778 8.96126 8.39991 9.00087 8.76537 9.15224C9.13082 9.30362 9.44318 9.55996 9.66294 9.88886C9.8827 10.2178 10 10.6044 10 11C10.0003 11.2627 9.94882 11.523 9.84843 11.7658C9.74804 12.0086 9.60073 12.2292 9.41495 12.4149C9.22916 12.6007 9.00856 12.748 8.76576 12.8484C8.52296 12.9488 8.26274 13.0003 8 13ZM9.5 6H3.5C3.36739 6 3.24021 5.94732 3.14645 5.85355C3.05268 5.75979 3 5.63261 3 5.5V3.5C3 3.36739 3.05268 3.24021 3.14645 3.14645C3.24021 3.05268 3.36739 3 3.5 3H9.5C9.63261 3 9.75979 3.05268 9.85355 3.14645C9.94732 3.24021 10 3.36739 10 3.5V5.5C10 5.63261 9.94732 5.75979 9.85355 5.85355C9.75979 5.94732 9.63261 6 9.5 6Z" stroke="black" stroke-linecap="round" stroke-linejoin="round"/>
</svg>
