<svg width="16" height="16" viewBox="0 0 16 16" fill="none" xmlns="http://www.w3.org/2000/svg">
<path d="M13.7016 12.2933L10.5896 9.17999C11.2099 8.21099 11.4504 7.0469 11.265 5.91129C11.0797 4.77567 10.4815 3.74861 9.58535 3.02734C8.6892 2.30607 7.55829 1.94145 6.40981 2.0035C5.26133 2.06555 4.17625 2.54991 3.36297 3.36354C2.54969 4.17718 2.06554 5.26272 2.00351 6.4117C1.94148 7.56068 2.30595 8.69208 3.02691 9.58861C3.74787 10.4851 4.77449 11.0836 5.90961 11.269C7.04473 11.4545 8.20832 11.2138 9.1769 10.5933L12.2889 13.7067C12.4763 13.8939 12.7304 13.9991 12.9952 13.9991C13.2601 13.9991 13.5142 13.8939 13.7016 13.7067C13.7951 13.6143 13.8693 13.5042 13.92 13.3829C13.9706 13.2616 13.9967 13.1315 13.9967 13C13.9967 12.8685 13.9706 12.7384 13.92 12.6171C13.8693 12.4957 13.7951 12.3857 13.7016 12.2933ZM3.33276 6.66665C3.33276 6.00738 3.52817 5.36291 3.89428 4.81475C4.26039 4.26659 4.78077 3.83935 5.38959 3.58705C5.99841 3.33476 6.66835 3.26875 7.31467 3.39737C7.96099 3.52598 8.55468 3.84345 9.02065 4.30963C9.48663 4.7758 9.80396 5.36975 9.93252 6.01635C10.0611 6.66295 9.9951 7.33318 9.74292 7.94226C9.49073 8.55135 9.06368 9.07195 8.51575 9.43822C7.96782 9.80449 7.32364 9.99998 6.66465 9.99998C5.78098 9.99998 4.9335 9.6488 4.30865 9.02367C3.68379 8.39855 3.33276 7.55071 3.33276 6.66665Z" fill="black"/>
</svg>
